<svg width="15" height="15" viewBox="0 0 15 15" fill="none" xmlns="http://www.w3.org/2000/svg">
<path d="M11.66 0.581051L4.04001 8.20105C3.74898 8.49051 3.51825 8.83483 3.36119 9.21407C3.20413 9.59331 3.12385 9.99994 3.12501 10.4104V11.2498C3.12501 11.4156 3.19086 11.5745 3.30807 11.6917C3.42528 11.8089 3.58425 11.8748 3.75001 11.8748H4.58939C4.99986 11.876 5.40649 11.7957 5.78573 11.6386C6.16497 11.4816 6.50929 11.2508 6.79876 10.9598L14.4188 3.3398C14.784 2.97366 14.9891 2.4776 14.9891 1.96042C14.9891 1.44325 14.784 0.947194 14.4188 0.581051C14.0473 0.225984 13.5532 0.027832 13.0394 0.027832C12.5255 0.027832 12.0315 0.225984 11.66 0.581051ZM13.535 2.45605L5.91501 10.076C5.56259 10.4263 5.08626 10.6235 4.58939 10.6248H4.37501V10.4104C4.37631 9.91354 4.57349 9.43722 4.92376 9.08479L12.5438 1.4648C12.6772 1.33727 12.8548 1.26611 13.0394 1.26611C13.224 1.26611 13.4015 1.33727 13.535 1.4648C13.6662 1.59637 13.7399 1.77461 13.7399 1.96042C13.7399 2.14624 13.6662 2.32448 13.535 2.45605Z" fill="white"/>
<path d="M14.375 5.61187C14.2092 5.61187 14.0503 5.67772 13.933 5.79493C13.8158 5.91214 13.75 6.07111 13.75 6.23687V9.37499H11.25C10.7527 9.37499 10.2758 9.57254 9.92417 9.92417C9.57254 10.2758 9.37499 10.7527 9.37499 11.25V13.75H3.125C2.62772 13.75 2.1508 13.5524 1.79917 13.2008C1.44754 12.8492 1.25 12.3723 1.25 11.875V3.125C1.25 2.62772 1.44754 2.1508 1.79917 1.79917C2.1508 1.44754 2.62772 1.25 3.125 1.25H8.77624C8.942 1.25 9.10098 1.18415 9.21819 1.06694C9.3354 0.949731 9.40124 0.79076 9.40124 0.625C9.40124 0.459239 9.3354 0.300268 9.21819 0.183058C9.10098 0.065848 8.942 0 8.77624 0L3.125 0C2.2965 0.00099241 1.50222 0.330551 0.916387 0.916387C0.330551 1.50222 0.00099241 2.2965 0 3.125L0 11.875C0.00099241 12.7035 0.330551 13.4978 0.916387 14.0836C1.50222 14.6694 2.2965 14.999 3.125 15H10.2144C10.6249 15.0012 11.0317 14.9209 11.411 14.7638C11.7904 14.6068 12.1348 14.376 12.4244 14.085L14.0844 12.4237C14.3755 12.1343 14.6063 11.79 14.7634 11.4107C14.9206 11.0315 15.001 10.6249 15 10.2144V6.23687C15 6.07111 14.9341 5.91214 14.8169 5.79493C14.6997 5.67772 14.5408 5.61187 14.375 5.61187ZM11.5406 13.2012C11.2894 13.4519 10.9717 13.6254 10.625 13.7012V11.25C10.625 11.0842 10.6908 10.9253 10.8081 10.8081C10.9253 10.6908 11.0842 10.625 11.25 10.625H13.7031C13.6258 10.9709 13.4525 11.2881 13.2031 11.54L11.5406 13.2012Z" fill="white"/>
</svg>
