<svg width="42" height="40" viewBox="0 0 32 30" fill="none" xmlns="http://www.w3.org/2000/svg">
<path d="M17.2727 0H4.54545C3.34037 0.00144351 2.18505 0.480802 1.33293 1.33293C0.480802 2.18505 0.00144351 3.34037 0 4.54545L0 15.4545C0.00144351 16.6596 0.480802 17.8149 1.33293 18.6671C2.18505 19.5192 3.34037 19.9986 4.54545 20H17.2727C18.4778 19.9986 19.6331 19.5192 20.4853 18.6671C21.3374 17.8149 21.8167 16.6596 21.8182 15.4545V4.54545C21.8167 3.34037 21.3374 2.18505 20.4853 1.33293C19.6331 0.480802 18.4778 0.00144351 17.2727 0ZM4.54545 1.81818H17.2727C17.8171 1.81925 18.3487 1.9832 18.799 2.28891C19.2494 2.59463 19.598 3.02813 19.8 3.53364L12.8382 10.4964C12.3258 11.0066 11.6322 11.2932 10.9091 11.2932C10.186 11.2932 9.49234 11.0066 8.98 10.4964L2.01818 3.53364C2.22014 3.02813 2.56874 2.59463 3.01913 2.28891C3.46953 1.9832 4.0011 1.81925 4.54545 1.81818ZM17.2727 18.1818H4.54545C3.82214 18.1818 3.12844 17.8945 2.61698 17.383C2.10552 16.8716 1.81818 16.1779 1.81818 15.4545V5.90909L7.69455 11.7818C8.54784 12.633 9.70387 13.1109 10.9091 13.1109C12.1143 13.1109 13.2703 12.633 14.1236 11.7818L20 5.90909V15.4545C20 16.1779 19.7127 16.8716 19.2012 17.383C18.6897 17.8945 17.996 18.1818 17.2727 18.1818Z" fill="black"/>
</svg>
