<svg width="10" height="10" viewBox="0 0 10 10" fill="none" xmlns="http://www.w3.org/2000/svg">
<path d="M4.11585 7.55083C4.23193 7.66699 4.36976 7.75914 4.52147 7.82201C4.67318 7.88487 4.83579 7.91723 5.00001 7.91723C5.16423 7.91723 5.32684 7.88487 5.47855 7.82201C5.63026 7.75914 5.7681 7.66699 5.88418 7.55083L7.2221 6.21292C7.29383 6.13358 7.33231 6.0297 7.32956 5.92277C7.32682 5.81585 7.28306 5.71408 7.20735 5.63853C7.13164 5.56298 7.02977 5.51944 6.92284 5.51692C6.81592 5.5144 6.71211 5.5531 6.63293 5.625L5.41376 6.84458L5.41668 0.416667C5.41668 0.30616 5.37278 0.200179 5.29464 0.122039C5.2165 0.0438987 5.11052 0 5.00001 0V0C4.88951 0 4.78353 0.0438987 4.70539 0.122039C4.62724 0.200179 4.58335 0.30616 4.58335 0.416667L4.5796 6.83667L3.3671 5.625C3.28891 5.54687 3.18289 5.503 3.07237 5.50304C2.96184 5.50308 2.85585 5.54702 2.77772 5.62521C2.69959 5.70339 2.65572 5.80941 2.65576 5.91994C2.6558 6.03047 2.69975 6.13646 2.77793 6.21458L4.11585 7.55083Z" fill="white"/>
<path d="M9.58333 6.66699C9.47283 6.66699 9.36685 6.71089 9.2887 6.78903C9.21056 6.86717 9.16667 6.97315 9.16667 7.08366V8.75033C9.16667 8.86083 9.12277 8.96681 9.04463 9.04495C8.96649 9.12309 8.86051 9.16699 8.75 9.16699H1.25C1.13949 9.16699 1.03351 9.12309 0.955372 9.04495C0.877232 8.96681 0.833333 8.86083 0.833333 8.75033V7.08366C0.833333 6.97315 0.789435 6.86717 0.711294 6.78903C0.633154 6.71089 0.527174 6.66699 0.416667 6.66699C0.30616 6.66699 0.200179 6.71089 0.122039 6.78903C0.0438987 6.86717 0 6.97315 0 7.08366L0 8.75033C0 9.08185 0.131696 9.39979 0.366116 9.63421C0.600537 9.86863 0.918479 10.0003 1.25 10.0003H8.75C9.08152 10.0003 9.39946 9.86863 9.63388 9.63421C9.8683 9.39979 10 9.08185 10 8.75033V7.08366C10 6.97315 9.9561 6.86717 9.87796 6.78903C9.79982 6.71089 9.69384 6.66699 9.58333 6.66699Z" fill="white"/>
</svg>
