<svg width="30" height="30" viewBox="0 0 30 30" fill="none" xmlns="http://www.w3.org/2000/svg">
<path d="M14.1667 7.02V5.83333C14.1667 4.28624 13.5521 2.80251 12.4581 1.70854C11.3642 0.614582 9.88043 0 8.33333 0C6.78624 0 5.30251 0.614582 4.20854 1.70854C3.11458 2.80251 2.5 4.28624 2.5 5.83333V7.02C1.7578 7.34392 1.12608 7.8771 0.682083 8.55434C0.238088 9.23158 0.00106531 10.0235 0 10.8333V15.8333C0.00132321 16.938 0.440735 17.997 1.22185 18.7782C2.00296 19.5593 3.062 19.9987 4.16667 20H12.5C13.6047 19.9987 14.6637 19.5593 15.4448 18.7782C16.2259 17.997 16.6653 16.938 16.6667 15.8333V10.8333C16.6656 10.0235 16.4286 9.23158 15.9846 8.55434C15.5406 7.8771 14.9089 7.34392 14.1667 7.02ZM4.16667 5.83333C4.16667 4.72826 4.60565 3.66846 5.38706 2.88706C6.16846 2.10565 7.22826 1.66667 8.33333 1.66667C9.4384 1.66667 10.4982 2.10565 11.2796 2.88706C12.061 3.66846 12.5 4.72826 12.5 5.83333V6.66667H4.16667V5.83333ZM15 15.8333C15 16.4964 14.7366 17.1323 14.2678 17.6011C13.7989 18.0699 13.163 18.3333 12.5 18.3333H4.16667C3.50363 18.3333 2.86774 18.0699 2.3989 17.6011C1.93006 17.1323 1.66667 16.4964 1.66667 15.8333V10.8333C1.66667 10.1703 1.93006 9.53441 2.3989 9.06557C2.86774 8.59673 3.50363 8.33333 4.16667 8.33333H12.5C13.163 8.33333 13.7989 8.59673 14.2678 9.06557C14.7366 9.53441 15 10.1703 15 10.8333V15.8333Z" fill="black"/>
<path d="M8.33333 11.6667C8.11232 11.6667 7.90036 11.7545 7.74408 11.9108C7.5878 12.0671 7.5 12.2791 7.5 12.5001V14.1667C7.5 14.3878 7.5878 14.5997 7.74408 14.756C7.90036 14.9123 8.11232 15.0001 8.33333 15.0001C8.55435 15.0001 8.76631 14.9123 8.92259 14.756C9.07887 14.5997 9.16667 14.3878 9.16667 14.1667V12.5001C9.16667 12.2791 9.07887 12.0671 8.92259 11.9108C8.76631 11.7545 8.55435 11.6667 8.33333 11.6667Z" fill="black"/>
</svg>
