<svg width="30" height="30" viewBox="0 0 30 30" fill="none" xmlns="http://www.w3.org/2000/svg">
<path d="M29.9944 12.1583V23.7512C29.9925 25.4078 29.3335 26.9961 28.162 28.1676C26.9906 29.339 25.4023 29.998 23.7456 30H22.4958C22.1644 30 21.8465 29.8683 21.6121 29.634C21.3777 29.3996 21.2461 29.0817 21.2461 28.7502C21.2461 28.4188 21.3777 28.1009 21.6121 27.8665C21.8465 27.6321 22.1644 27.5005 22.4958 27.5005H23.7456C24.74 27.5005 25.6936 27.1054 26.3968 26.4023C27.0999 25.6992 27.4949 24.7455 27.4949 23.7512V12.1583C27.4949 11.5446 27.3443 10.9402 27.0562 10.3983C26.7682 9.85635 26.3515 9.39342 25.8427 9.05014L17.0943 3.14748C16.4762 2.72607 15.7454 2.50067 14.9972 2.50067C14.2491 2.50067 13.5183 2.72607 12.9001 3.14748L4.15173 9.05014C3.64298 9.39342 3.22628 9.85635 2.93821 10.3983C2.65014 10.9402 2.49951 11.5446 2.49954 12.1583V23.7512C2.49954 24.7455 2.89456 25.6992 3.59769 26.4023C4.30082 27.1054 5.25447 27.5005 6.24885 27.5005H7.49861C7.83007 27.5005 8.14796 27.6321 8.38233 27.8665C8.61671 28.1009 8.74838 28.4188 8.74838 28.7502C8.74838 29.0817 8.61671 29.3996 8.38233 29.634C8.14796 29.8683 7.83007 30 7.49861 30H6.24885C4.59216 29.998 3.0039 29.339 1.83244 28.1676C0.660985 26.9961 0.00198935 25.4078 4.89543e-06 23.7512V12.1583C-0.00127596 11.1356 0.248807 10.1283 0.72825 9.22503C1.20769 8.32172 1.9018 7.55008 2.74949 6.97802L11.4979 1.07412C12.5293 0.374188 13.747 0 14.9935 0C16.2399 0 17.4577 0.374188 18.4891 1.07412L27.2375 6.97802C28.086 7.54978 28.7811 8.32116 29.2619 9.22441C29.7426 10.1276 29.9941 11.1351 29.9944 12.1583ZM23.7456 18.7608C23.7488 19.91 23.524 21.0484 23.0842 22.1101C22.6445 23.1717 21.9984 24.1356 21.1836 24.9459L16.7906 29.2426C16.3097 29.7082 15.6666 29.9686 14.9972 29.9686C14.3278 29.9686 13.6847 29.7082 13.2038 29.2426L8.82087 24.9559C7.80155 23.9398 7.04868 22.6879 6.62901 21.3111C6.20933 19.9344 6.13582 18.4754 6.41498 17.0634C6.69414 15.6515 7.31734 14.3302 8.22936 13.2168C9.14137 12.1033 10.314 11.2321 11.6433 10.6803C12.9726 10.1285 14.4176 9.91322 15.85 10.0535C17.2824 10.1938 18.6581 10.6854 19.8551 11.4846C21.0521 12.2838 22.0334 13.366 22.712 14.6352C23.3907 15.9045 23.7457 17.3216 23.7456 18.7608ZM21.2461 18.7608C21.2461 17.7332 20.9927 16.7215 20.5083 15.8152C20.0239 14.9089 19.3235 14.1361 18.4691 13.5652C17.6147 12.9942 16.6327 12.6428 15.6101 12.542C14.5874 12.4413 13.5557 12.5942 12.6063 12.9874C11.6569 13.3806 10.8191 14.0018 10.1672 14.7961C9.51518 15.5904 9.06915 16.5332 8.86858 17.541C8.668 18.5489 8.71906 19.5906 9.01724 20.574C9.31542 21.5574 9.85152 22.452 10.578 23.1788L14.9522 27.4555L19.4264 23.1688C20.0058 22.5906 20.4649 21.9034 20.7773 21.1469C21.0896 20.3903 21.2489 19.5793 21.2461 18.7608ZM18.7465 18.7521C18.7465 19.4936 18.5266 20.2185 18.1147 20.8351C17.7027 21.4517 17.1171 21.9322 16.432 22.216C15.7469 22.4998 14.9931 22.574 14.2658 22.4293C13.5385 22.2847 12.8704 21.9276 12.3461 21.4032C11.8217 20.8789 11.4646 20.2108 11.32 19.4835C11.1753 18.7562 11.2495 18.0024 11.5333 17.3173C11.8171 16.6322 12.2977 16.0466 12.9142 15.6347C13.5308 15.2227 14.2557 15.0028 14.9972 15.0028C15.9916 15.0028 16.9453 15.3978 17.6484 16.1009C18.3515 16.8041 18.7465 17.7577 18.7465 18.7521Z" fill="black"/>
</svg>
