<svg width="25" height="25" viewBox="0 0 25 25" fill="none" xmlns="http://www.w3.org/2000/svg">
<path d="M19.4333 0.968662L6.73335 13.6687C6.24829 14.1511 5.86374 14.725 5.60198 15.357C5.34021 15.9891 5.20642 16.6668 5.20835 17.3509V18.7499C5.20835 19.0262 5.3181 19.2911 5.51345 19.4865C5.7088 19.6818 5.97375 19.7916 6.25001 19.7916H7.64897C8.3331 19.7935 9.01081 19.6597 9.64288 19.3979C10.275 19.1362 10.8488 18.7516 11.3313 18.2666L24.0313 5.56658C24.64 4.95634 24.9819 4.12957 24.9819 3.26762C24.9819 2.40567 24.64 1.5789 24.0313 0.968662C23.4122 0.376885 22.5887 0.0466309 21.7323 0.0466309C20.8759 0.0466309 20.0524 0.376885 19.4333 0.968662V0.968662ZM22.5583 4.09366L9.85835 16.7937C9.27098 17.3774 8.4771 17.7061 7.64897 17.7082H7.29168V17.3509C7.29385 16.5228 7.62248 15.7289 8.20626 15.1416L20.9063 2.44158C21.1287 2.22903 21.4246 2.11043 21.7323 2.11043C22.04 2.11043 22.3358 2.22903 22.5583 2.44158C22.777 2.66086 22.8998 2.95792 22.8998 3.26762C22.8998 3.57732 22.777 3.87437 22.5583 4.09366V4.09366Z" fill="white"/>
<path d="M23.9583 9.35312C23.6821 9.35312 23.4171 9.46287 23.2217 9.65822C23.0264 9.85357 22.9167 10.1185 22.9167 10.3948V15.625H18.75C17.9212 15.625 17.1263 15.9542 16.5403 16.5403C15.9542 17.1263 15.625 17.9212 15.625 18.75V22.9167H5.20833C4.37953 22.9167 3.58467 22.5874 2.99862 22.0014C2.41257 21.4153 2.08333 20.6205 2.08333 19.7917V5.20833C2.08333 4.37953 2.41257 3.58467 2.99862 2.99862C3.58467 2.41257 4.37953 2.08333 5.20833 2.08333H14.6271C14.9033 2.08333 15.1683 1.97359 15.3636 1.77824C15.559 1.58288 15.6687 1.31793 15.6687 1.04167C15.6687 0.765399 15.559 0.500447 15.3636 0.305097C15.1683 0.109747 14.9033 0 14.6271 0L5.20833 0C3.8275 0.00165402 2.5037 0.550918 1.52731 1.52731C0.550918 2.5037 0.00165402 3.8275 0 5.20833L0 19.7917C0.00165402 21.1725 0.550918 22.4963 1.52731 23.4727C2.5037 24.4491 3.8275 24.9983 5.20833 25H17.0239C17.7082 25.0019 18.3861 24.8682 19.0184 24.6064C19.6506 24.3446 20.2246 23.9601 20.7073 23.475L23.4739 20.7062C23.9591 20.2238 24.3438 19.65 24.6057 19.0179C24.8677 18.3859 25.0017 17.7081 25 17.0239V10.3948C25 10.1185 24.8902 9.85357 24.6949 9.65822C24.4995 9.46287 24.2346 9.35312 23.9583 9.35312ZM19.2344 22.0021C18.8156 22.4198 18.2861 22.7089 17.7083 22.8354V18.75C17.7083 18.4737 17.8181 18.2088 18.0134 18.0134C18.2088 17.8181 18.4737 17.7083 18.75 17.7083H22.8385C22.7097 18.2849 22.4208 18.8135 22.0052 19.2333L19.2344 22.0021Z" fill="white"/>
</svg>
