<svg width="32" height="30" viewBox="0 0 32 30" fill="none" xmlns="http://www.w3.org/2000/svg">
<path d="M15.75 12.6769C14.7057 12.6769 13.7042 12.2763 12.9658 11.563C12.2273 10.8498 11.8125 9.8825 11.8125 8.87386C11.8125 7.86522 12.2273 6.89789 12.9658 6.18467C13.7042 5.47146 14.7057 5.07078 15.75 5.07078C16.7943 5.07078 17.7958 5.47146 18.5342 6.18467C19.2727 6.89789 19.6875 7.86522 19.6875 8.87386C19.6875 9.8825 19.2727 10.8498 18.5342 11.563C17.7958 12.2763 16.7943 12.6769 15.75 12.6769ZM11.7705 19.3311C12.0404 18.5166 12.5712 17.8061 13.2864 17.3019C14.0015 16.7977 14.864 16.526 15.7493 16.526C16.6347 16.526 17.4972 16.7977 18.2123 17.3019C18.9275 17.8061 19.4583 18.5166 19.7282 19.3311C19.8152 19.6569 20.0327 19.9359 20.3327 20.1068C20.6328 20.2778 20.9908 20.3266 21.3281 20.2425C21.6654 20.1585 21.9544 19.9485 22.1313 19.6587C22.3083 19.3688 22.3588 19.023 22.2718 18.6972C20.5511 12.4259 10.9449 12.4285 9.2295 18.6972C9.18212 18.8597 9.16881 19.0297 9.19035 19.1972C9.2119 19.3647 9.26786 19.5264 9.35497 19.6727C9.44207 19.8191 9.55856 19.9471 9.6976 20.0494C9.83663 20.1517 9.99542 20.2261 10.1646 20.2683C10.3339 20.3106 10.5101 20.3197 10.683 20.2952C10.8559 20.2708 11.0221 20.2132 11.1717 20.1259C11.3212 20.0386 11.4513 19.9233 11.5541 19.7868C11.6569 19.6503 11.7305 19.4954 11.7705 19.3311ZM15.7618 30C15.1143 30.0003 14.4892 29.7707 14.0057 29.3547L9.08644 25.3539H5.25C3.85761 25.3539 2.52226 24.8196 1.53769 23.8687C0.553123 22.9177 0 21.628 0 20.2831V5.07078C0 3.72592 0.553123 2.43615 1.53769 1.4852C2.52226 0.534241 3.85761 0 5.25 0L26.25 0C27.6424 0 28.9777 0.534241 29.9623 1.4852C30.9469 2.43615 31.5 3.72592 31.5 5.07078V20.2831C31.5 21.628 30.9469 22.9177 29.9623 23.8687C28.9777 24.8196 27.6424 25.3539 26.25 25.3539H22.5054L17.4563 29.3851C16.9885 29.7836 16.3855 30.0024 15.7618 30ZM5.25 2.53539C4.55381 2.53539 3.88613 2.80251 3.39384 3.27799C2.90156 3.75346 2.625 4.39835 2.625 5.07078V20.2831C2.625 20.9555 2.90156 21.6004 3.39384 22.0759C3.88613 22.5514 4.55381 22.8185 5.25 22.8185H9.56681C9.8761 22.8185 10.1755 22.924 10.4121 23.1164L15.7224 27.4392L21.1982 23.1088C21.4335 22.9211 21.7291 22.8184 22.0343 22.8185H26.25C26.9462 22.8185 27.6139 22.5514 28.1062 22.0759C28.5984 21.6004 28.875 20.9555 28.875 20.2831V5.07078C28.875 4.39835 28.5984 3.75346 28.1062 3.27799C27.6139 2.80251 26.9462 2.53539 26.25 2.53539H5.25Z" fill="#212121"/>
</svg>
