<svg width="33" height="30" viewBox="0 0 33 30" fill="none" xmlns="http://www.w3.org/2000/svg">
<path d="M25.9091 0H6.81818C5.01055 0.00216526 3.27758 0.721203 1.99939 1.99939C0.721203 3.27758 0.00216526 5.01055 0 6.81818L0 23.1818C0.00216526 24.9894 0.721203 26.7224 1.99939 28.0006C3.27758 29.2788 5.01055 29.9978 6.81818 30H25.9091C27.7167 29.9978 29.4497 29.2788 30.7279 28.0006C32.0061 26.7224 32.7251 24.9894 32.7273 23.1818V6.81818C32.7251 5.01055 32.0061 3.27758 30.7279 1.99939C29.4497 0.721203 27.7167 0.00216526 25.9091 0ZM6.81818 2.72727H25.9091C26.7256 2.72888 27.523 2.97479 28.1986 3.43337C28.8742 3.89195 29.3971 4.5422 29.7 5.30045L19.2573 15.7445C18.4888 16.51 17.4483 16.9397 16.3636 16.9397C15.279 16.9397 14.2385 16.51 13.47 15.7445L3.02727 5.30045C3.3302 4.5422 3.85311 3.89195 4.5287 3.43337C5.20429 2.97479 6.00166 2.72888 6.81818 2.72727ZM25.9091 27.2727H6.81818C5.73321 27.2727 4.69267 26.8417 3.92547 26.0745C3.15828 25.3073 2.72727 24.2668 2.72727 23.1818V8.86364L11.5418 17.6727C12.8218 18.9494 14.5558 19.6664 16.3636 19.6664C18.1715 19.6664 19.9055 18.9494 21.1855 17.6727L30 8.86364V23.1818C30 24.2668 29.569 25.3073 28.8018 26.0745C28.0346 26.8417 26.9941 27.2727 25.9091 27.2727Z" fill="black"/>
</svg>
