<svg width="12" height="11" viewBox="0 0 12 11" fill="none" xmlns="http://www.w3.org/2000/svg">
<path d="M9.5 1.83333H9.246L8.154 0.535333C8.01326 0.369328 7.83316 0.234858 7.62733 0.142108C7.42151 0.0493586 7.19535 0.000762228 6.966 0L5.034 0C4.80465 0.000762228 4.57849 0.0493586 4.37267 0.142108C4.16684 0.234858 3.98674 0.369328 3.846 0.535333L2.754 1.83333H2.5C1.8372 1.83406 1.20178 2.07574 0.73311 2.50535C0.264441 2.93496 0.000793929 3.51744 0 4.125L0 8.70833C0.000793929 9.3159 0.264441 9.89837 0.73311 10.328C1.20178 10.7576 1.8372 10.9993 2.5 11H9.5C10.1628 10.9993 10.7982 10.7576 11.2669 10.328C11.7356 9.89837 11.9992 9.3159 12 8.70833V4.125C11.9992 3.51744 11.7356 2.93496 11.2669 2.50535C10.7982 2.07574 10.1628 1.83406 9.5 1.83333ZM4.638 1.09542C4.68484 1.03998 4.74485 0.995071 4.81347 0.964096C4.88209 0.933122 4.95751 0.9169 5.034 0.916667H6.966C7.04248 0.916968 7.11787 0.933219 7.18648 0.964189C7.25509 0.995158 7.31511 1.04003 7.362 1.09542L7.983 1.83333H4.017L4.638 1.09542ZM11 8.70833C11 9.07301 10.842 9.42274 10.5607 9.68061C10.2794 9.93847 9.89782 10.0833 9.5 10.0833H2.5C2.10218 10.0833 1.72064 9.93847 1.43934 9.68061C1.15804 9.42274 1 9.07301 1 8.70833V4.125C1 3.76033 1.15804 3.41059 1.43934 3.15273C1.72064 2.89487 2.10218 2.75 2.5 2.75H9.5C9.89782 2.75 10.2794 2.89487 10.5607 3.15273C10.842 3.41059 11 3.76033 11 4.125V8.70833Z" fill="white"/>
<path d="M6 3.66663C5.40666 3.66663 4.82664 3.82791 4.33329 4.13008C3.83994 4.43226 3.45543 4.86175 3.22836 5.36425C3.0013 5.86674 2.94189 6.41968 3.05765 6.95312C3.1734 7.48657 3.45912 7.97658 3.87868 8.36117C4.29824 8.74576 4.83279 9.00768 5.41473 9.11379C5.99667 9.21989 6.59987 9.16544 7.14805 8.95729C7.69623 8.74915 8.16477 8.39668 8.49441 7.94444C8.82405 7.49221 9 6.96052 9 6.41663C8.99921 5.6875 8.68288 4.98845 8.12044 4.47289C7.55801 3.95732 6.79541 3.66735 6 3.66663ZM6 8.24996C5.60444 8.24996 5.21776 8.14244 4.88886 7.94099C4.55996 7.73954 4.30362 7.45321 4.15224 7.11821C4.00087 6.78321 3.96126 6.41459 4.03843 6.05896C4.1156 5.70333 4.30608 5.37666 4.58579 5.12026C4.86549 4.86387 5.22186 4.68926 5.60982 4.61852C5.99778 4.54778 6.39992 4.58409 6.76537 4.72285C7.13082 4.86161 7.44318 5.09659 7.66294 5.39808C7.8827 5.69957 8 6.05403 8 6.41663C8 6.90286 7.78929 7.36917 7.41421 7.71299C7.03914 8.0568 6.53043 8.24996 6 8.24996Z" fill="white"/>
</svg>
