<svg width="26" height="26" viewBox="0 0 26 26" fill="none" xmlns="http://www.w3.org/2000/svg">
<circle cx="13" cy="13" r="13" transform="rotate(-180 13 13)" fill="#EAEAEA"/>
<path d="M15.8889 6.67893C15.8887 6.91855 15.7933 7.14828 15.6238 7.31762L11.0011 11.9403C10.8612 12.0802 10.7502 12.2462 10.6745 12.429C10.5988 12.6118 10.5598 12.8077 10.5598 13.0056C10.5598 13.2034 10.5988 13.3993 10.6745 13.5821C10.7502 13.7649 10.8612 13.931 11.0011 14.0708L15.6177 18.6905C15.7824 18.8609 15.8735 19.0892 15.8714 19.3262C15.8694 19.5632 15.7743 19.7899 15.6067 19.9574C15.4392 20.125 15.2125 20.2201 14.9755 20.2221C14.7385 20.2242 14.5102 20.1331 14.3398 19.9685L9.72314 15.3524C9.10238 14.7305 8.75375 13.8876 8.75375 13.0089C8.75375 12.1301 9.10238 11.2873 9.72314 10.6653L14.3458 6.04265C14.472 5.91635 14.6328 5.83027 14.8079 5.79526C14.983 5.76026 15.1645 5.7779 15.3296 5.84597C15.4947 5.91404 15.6359 6.02948 15.7354 6.17772C15.835 6.32596 15.8884 6.50037 15.8889 6.67893Z" fill="#212121"/>
</svg>
