<svg width="30" height="30" viewBox="0 0 30 30" fill="none" xmlns="http://www.w3.org/2000/svg">
<path d="M23.75 5H18.75V3.75C18.75 2.75544 18.3549 1.80161 17.6517 1.09835C16.9484 0.395088 15.9946 0 15 0C14.0054 0 13.0516 0.395088 12.3483 1.09835C11.6451 1.80161 11.25 2.75544 11.25 3.75V5H6.25C4.59301 5.00199 3.00445 5.6611 1.83277 6.83278C0.661102 8.00445 0.00198482 9.59301 0 11.25L0 23.75C0.00198482 25.407 0.661102 26.9956 1.83277 28.1672C3.00445 29.3389 4.59301 29.998 6.25 30H23.75C25.407 29.998 26.9956 29.3389 28.1672 28.1672C29.3389 26.9956 29.998 25.407 30 23.75V11.25C29.998 9.59301 29.3389 8.00445 28.1672 6.83278C26.9956 5.6611 25.407 5.00199 23.75 5ZM13.75 3.75C13.75 3.41848 13.8817 3.10054 14.1161 2.86612C14.3505 2.6317 14.6685 2.5 15 2.5C15.3315 2.5 15.6495 2.6317 15.8839 2.86612C16.1183 3.10054 16.25 3.41848 16.25 3.75V6.25C16.25 6.58152 16.1183 6.89946 15.8839 7.13388C15.6495 7.3683 15.3315 7.5 15 7.5C14.6685 7.5 14.3505 7.3683 14.1161 7.13388C13.8817 6.89946 13.75 6.58152 13.75 6.25V3.75ZM27.5 23.75C27.5 24.7446 27.1049 25.6984 26.4017 26.4017C25.6984 27.1049 24.7446 27.5 23.75 27.5H6.25C5.25544 27.5 4.30161 27.1049 3.59835 26.4017C2.89509 25.6984 2.5 24.7446 2.5 23.75V11.25C2.5 10.2554 2.89509 9.30161 3.59835 8.59835C4.30161 7.89509 5.25544 7.5 6.25 7.5H11.48C11.7346 8.23068 12.2102 8.86404 12.8409 9.31221C13.4717 9.76039 14.2262 10.0012 15 10.0012C15.7738 10.0012 16.5283 9.76039 17.1591 9.31221C17.7898 8.86404 18.2654 8.23068 18.52 7.5H23.75C24.7446 7.5 25.6984 7.89509 26.4017 8.59835C27.1049 9.30161 27.5 10.2554 27.5 11.25V23.75ZM12.5 12.5H6.25C5.91848 12.5 5.60054 12.6317 5.36612 12.8661C5.1317 13.1005 5 13.4185 5 13.75V23.75C5 24.0815 5.1317 24.3995 5.36612 24.6339C5.60054 24.8683 5.91848 25 6.25 25H12.5C12.8315 25 13.1495 24.8683 13.3839 24.6339C13.6183 24.3995 13.75 24.0815 13.75 23.75V13.75C13.75 13.4185 13.6183 13.1005 13.3839 12.8661C13.1495 12.6317 12.8315 12.5 12.5 12.5ZM11.25 22.5H7.5V15H11.25V22.5ZM25 18.75C25 19.0815 24.8683 19.3995 24.6339 19.6339C24.3995 19.8683 24.0815 20 23.75 20H17.5C17.1685 20 16.8505 19.8683 16.6161 19.6339C16.3817 19.3995 16.25 19.0815 16.25 18.75C16.25 18.4185 16.3817 18.1005 16.6161 17.8661C16.8505 17.6317 17.1685 17.5 17.5 17.5H23.75C24.0815 17.5 24.3995 17.6317 24.6339 17.8661C24.8683 18.1005 25 18.4185 25 18.75ZM25 13.75C25 14.0815 24.8683 14.3995 24.6339 14.6339C24.3995 14.8683 24.0815 15 23.75 15H17.5C17.1685 15 16.8505 14.8683 16.6161 14.6339C16.3817 14.3995 16.25 14.0815 16.25 13.75C16.25 13.4185 16.3817 13.1005 16.6161 12.8661C16.8505 12.6317 17.1685 12.5 17.5 12.5H23.75C24.0815 12.5 24.3995 12.6317 24.6339 12.8661C24.8683 13.1005 25 13.4185 25 13.75ZM22.5 23.75C22.5 24.0815 22.3683 24.3995 22.1339 24.6339C21.8995 24.8683 21.5815 25 21.25 25H17.5C17.1685 25 16.8505 24.8683 16.6161 24.6339C16.3817 24.3995 16.25 24.0815 16.25 23.75C16.25 23.4185 16.3817 23.1005 16.6161 22.8661C16.8505 22.6317 17.1685 22.5 17.5 22.5H21.25C21.5815 22.5 21.8995 22.6317 22.1339 22.8661C22.3683 23.1005 22.5 23.4185 22.5 23.75Z" fill="black"/>
</svg>
